<svg width="28" height="28" viewBox="0 0 28 28" fill="none" xmlns="http://www.w3.org/2000/svg">
<path d="M26 26.0002L20.2094 20.2095M20.2094 20.2095C21.1999 19.219 21.9856 18.0431 22.5217 16.7489C23.0577 15.4547 23.3336 14.0676 23.3336 12.6668C23.3336 11.266 23.0577 9.87893 22.5217 8.58476C21.9856 7.29058 21.1999 6.11467 20.2094 5.12415C19.2188 4.13364 18.0429 3.34791 16.7488 2.81185C15.4546 2.27579 14.0675 1.99988 12.6667 1.99988C11.2659 1.99988 9.87881 2.27579 8.58464 2.81185C7.29046 3.34791 6.11455 4.13364 5.12403 5.12415C3.12359 7.12459 1.99976 9.83777 1.99976 12.6668C1.99976 15.4959 3.12359 18.209 5.12403 20.2095C7.12447 22.2099 9.83765 23.3338 12.6667 23.3338C15.4957 23.3338 18.2089 22.2099 20.2094 20.2095Z" stroke="white" stroke-width="2.5" stroke-linecap="round" stroke-linejoin="round"/>
</svg>
